<svg xmlns="http://www.w3.org/2000/svg" xmlns:xlink="http://www.w3.org/1999/xlink" viewBox="0 0 149.04 198.4"><defs><style>.cls-1{fill:none;}.cls-2{clip-path:url(#clip-path);}.cls-3{fill:#b71251;}.cls-10,.cls-11,.cls-12,.cls-13,.cls-3,.cls-4,.cls-5,.cls-6,.cls-7,.cls-8,.cls-9{fill-rule:evenodd;}.cls-4{fill:#8e245d;}.cls-5{fill:#82b7df;}.cls-6{fill:#c8e1e8;}.cls-7{fill:#0084b6;}.cls-8{fill:#c0ce2e;}.cls-9{fill:#6aa842;}.cls-10{fill:#eab817;}.cls-11{fill:#dc911b;}.cls-12{fill:#d67c1b;}.cls-13{fill:#6f6f6e;}</style><clipPath id="clip-path" transform="translate(0)"><rect class="cls-1" width="149.04" height="198.4"/></clipPath></defs><title>Ресурс 1</title><g id="Слой_2" data-name="Слой 2"><g id="Слой_1-2" data-name="Слой 1"><g class="cls-2"><path class="cls-3" d="M82.59,76.87H79.07v67.71h13a47,47,0,0,0-9.47-67.71m19.16,67.71h45V116.33a47,47,0,0,0-45,28.24M96.26,76.87A47,47,0,0,0,146.78,107V76.87Z" transform="translate(0)"/><path class="cls-4" d="M114.39,127.52a46.76,46.76,0,0,1,16.88,17.06h15.52V116.33a46.88,46.88,0,0,0-32.4,11.19M79.07,114.45v30.12h13a47,47,0,0,0,9.44-38.44,46.73,46.73,0,0,1-22.42,8.32m50.69-37.59H96.26A47,47,0,0,0,122.5,104a47,47,0,0,1,7.26-27.12" transform="translate(0)"/><path class="cls-5" d="M52.28,110.72A68.88,68.88,0,0,0,69.91,76.87H2.21v67.71h67.7a68.9,68.9,0,0,0-17.63-33.85" transform="translate(0)"/><path class="cls-6" d="M50.65,76.87H2.22V89.22a68.78,68.78,0,0,1,33.1,8.44A83.32,83.32,0,0,0,50.65,76.87M35.32,123.78a68.71,68.71,0,0,1-33.1,8.44v12.36H50.65a83.36,83.36,0,0,0-15.33-20.79" transform="translate(0)"/><path class="cls-7" d="M2.21,89.22v14.45a82.67,82.67,0,0,1,16,7.06A83.28,83.28,0,0,0,35.32,97.66a68.78,68.78,0,0,0-33.1-8.44m0,28.56v14.44a68.71,68.71,0,0,0,33.1-8.43,83.55,83.55,0,0,0-17.14-13.06,82.67,82.67,0,0,1-16,7.06" transform="translate(0)"/><path class="cls-8" d="M79.08,67.71h67.71V38.41H79.08Zm0-35.56h67.71V0H79.08Z" transform="translate(0)"/><path class="cls-9" d="M79.08,58.45h67.71V44.64H79.08Zm0-34.46h67.71V0H79.08Z" transform="translate(0)"/><path class="cls-10" d="M37.24,47.23A35.76,35.76,0,0,1,26.16,36.5a18.94,18.94,0,1,1,31.47,9.17,22.09,22.09,0,0,1-10.25,3.61,25.58,25.58,0,0,0,22.54-10V0H2.21V67.71H69.92V49.84h0a35.9,35.9,0,0,1-32.68-2.62" transform="translate(0)"/><path class="cls-11" d="M23.11,30.86A31.58,31.58,0,0,1,31.8,0H24.27a35.9,35.9,0,0,0-1.16,30.85M59.82,67.71h10.1V60.88a43.89,43.89,0,0,1-10.1,6.83M6.24,0h-4V5.78l.56-.93A45.14,45.14,0,0,1,6.24,0m-4,50.35V67.71H20.89c-1.27-.62-2.52-1.31-3.74-2.07A44,44,0,0,1,2.21,50.35" transform="translate(0)"/><path class="cls-12" d="M37.24,47.23A35.94,35.94,0,0,1,24.27,0H13.93l-.07.11A38,38,0,0,0,69.92,49.84a35.9,35.9,0,0,1-32.68-2.62M63,2.06A25.5,25.5,0,0,0,58.86,0H40.23A25.57,25.57,0,0,0,24,22.27a22,22,0,1,1,23.36,27,25.58,25.58,0,0,0,22.54-10V8.36A25.41,25.41,0,0,0,63,2.06" transform="translate(0)"/><polygon class="cls-13" points="55.11 191.33 55.11 192.09 52.32 192.09 52.32 198.28 51.42 198.28 51.42 191.33 55.11 191.33"/><path class="cls-13" d="M57.35,194.76a3,3,0,0,0,.74.07c1.08,0,1.74-.52,1.74-1.48S59.18,192,58.2,192a3.79,3.79,0,0,0-.84.07Zm-.9-3.35a10.53,10.53,0,0,1,1.72-.13,2.86,2.86,0,0,1,1.95.58,1.87,1.87,0,0,1,.61,1.45,2,2,0,0,1-.54,1.48,2.88,2.88,0,0,1-2.12.76,3.11,3.11,0,0,1-.72-.06v2.78h-.9Z" transform="translate(0)"/><path class="cls-13" d="M62.63,191.33l1.38,3c.17.41.34.82.5,1.22h0c.12-.35.26-.76.43-1.25L66,191.33H67l-1.45,3.57a12.82,12.82,0,0,1-1.3,2.64,2,2,0,0,1-1.57.86,1.55,1.55,0,0,1-.51-.06l.09-.73a1.31,1.31,0,0,0,.33,0c.72,0,1.14-.69,1.36-1.19a.4.4,0,0,0,0-.41l-2.31-4.7Z" transform="translate(0)"/><polygon class="cls-13" points="73.33 191.33 73.33 198.28 72.44 198.28 72.44 192.09 69.21 192.09 69.21 198.28 68.32 198.28 68.32 191.33 73.33 191.33"/><polygon class="cls-13" points="80.37 191.33 80.37 198.28 79.47 198.28 79.47 192.09 76.25 192.09 76.25 198.28 75.35 198.28 75.35 191.33 80.37 191.33"/><path class="cls-13" d="M85.78,195.39l-.68-2c-.15-.45-.26-.87-.36-1.27h0c-.1.41-.22.83-.35,1.26l-.68,2Zm-2.27.7-.72,2.19h-.93l2.36-6.94h1.08l2.37,6.94h-1L86,196.09Z" transform="translate(0)"/><path class="cls-13" d="M92.78,191.33v3.08h.28l2.38-3.08h1.08l-2.63,3.18a2.32,2.32,0,0,1,1.95,1.79,18.18,18.18,0,0,0,.76,2h-1a11.93,11.93,0,0,1-.63-1.64,1.87,1.87,0,0,0-1.94-1.55h-.29v3.18H91.9v-6.94Z" transform="translate(0)"/><path class="cls-13" d="M98.3,194.85c0,1.49.8,2.81,2.21,2.81s2.22-1.31,2.22-2.88c0-1.38-.72-2.82-2.21-2.82s-2.22,1.37-2.22,2.89m5.39-.11c0,2.39-1.45,3.66-3.22,3.66s-3.12-1.42-3.12-3.52,1.37-3.65,3.22-3.65,3.12,1.45,3.12,3.51" transform="translate(0)"/><path class="cls-13" d="M111.13,195.23c-.05-1-.11-2.13-.1-3h0c-.24.81-.53,1.69-.88,2.64l-1.23,3.37h-.68l-1.12-3.31c-.33-1-.61-1.87-.8-2.7h0c0,.86-.07,2-.13,3.07l-.18,3h-.86l.49-6.94h1.14l1.19,3.36c.29.85.52,1.62.7,2.34h0c.18-.7.42-1.46.73-2.34l1.24-3.36h1.14l.43,6.94h-.87Z" transform="translate(0)"/><polygon class="cls-13" points="119.03 191.33 119.03 198.28 118.14 198.28 118.14 192.09 114.92 192.09 114.92 198.28 114.02 198.28 114.02 191.33 119.03 191.33"/><path class="cls-13" d="M124.44,195.39l-.68-2c-.15-.45-.26-.87-.36-1.27h0c-.1.41-.22.83-.35,1.26l-.68,2Zm-2.28.7-.72,2.19h-.93l2.36-6.94H124l2.37,6.94h-1l-.74-2.19Z" transform="translate(0)"/><polygon class="cls-13" points="128.7 191.33 128.7 194.24 132.06 194.24 132.06 191.33 132.96 191.33 132.96 198.28 132.06 198.28 132.06 195.02 128.7 195.02 128.7 198.28 127.8 198.28 127.8 191.33 128.7 191.33"/><path class="cls-13" d="M135.82,191.33v2.93c0,1.09,0,2-.08,2.93h0c.35-.72.78-1.47,1.29-2.3l2.24-3.57h.9v6.94h-.84v-3c0-1.12,0-1.95.08-2.82h0a21.29,21.29,0,0,1-1.29,2.34l-2.17,3.45h-1v-6.94Z" transform="translate(0)"/><path class="cls-13" d="M144.19,189.87c0,.33.14.65.63.65s.59-.31.63-.65h.69c0,.69-.46,1.11-1.34,1.11a1.13,1.13,0,0,1-1.3-1.11Zm-1.13,1.46v2.93c0,1.09,0,2-.08,2.93h0c.35-.72.78-1.47,1.29-2.3l2.25-3.57h.9v6.94h-.84v-3c0-1.12,0-1.95.08-2.82h0a21,21,0,0,1-1.29,2.34l-2.17,3.45h-1v-6.94Z" transform="translate(0)"/><path class="cls-13" d="M140.76,171.39l7.72-12.94h-5.85L138,167l-4.63-8.58h-5.89l7.72,12.94L126.93,185h5.93l5.11-9.25,5.15,9.25H149ZM106.61,185H124.1v-4.63H111.79V174h10.48v-4.62H111.79v-6.34H124.1v-4.62H106.61ZM83.91,163.07h6.94V185H96V163.07H103v-4.62H83.91Zm-7.43,9.67c0,3.69-.15,5.59-1.27,6.83A4.45,4.45,0,0,1,71.86,181a4.37,4.37,0,0,1-3.32-1.45c-1-1.12-1.31-2.69-1.31-6.56v-2.49c0-3.36.26-5.48,1.31-6.68a4.23,4.23,0,0,1,3.32-1.42,4.36,4.36,0,0,1,3.35,1.42c1,1.16,1.27,3.06,1.27,6.49Zm-4.62-14.95a9.5,9.5,0,0,0-7.16,2.91c-2,2.05-2.46,4.82-2.61,8.7h-4v-11H52.88V185h5.18V174h4c.07,3.5.45,6.47,2.65,8.7a10.31,10.31,0,0,0,14.36,0c2.58-2.68,2.61-5.78,2.61-10.22v-3.57c0-3.65-.64-6.23-2.61-8.24a9.68,9.68,0,0,0-7.19-2.91m-41.67,12.7c0,8.32-1.9,9.88-4.55,9.88h-.75V185h2.05c5.52,0,8.24-3.06,8.24-14.21v-7.72h6.34V185h5.18V158.44H30.19ZM8.47,175.94l3.36-9.66,3.24,9.66Zm1.19-17.49L0,185H5.41L7,180.3h9.44L18,185h5.41l-9.7-26.56Z" transform="translate(0)"/></g></g></g></svg>