<svg width="325" height="60" viewBox="0 0 325 60" fill="none" xmlns="http://www.w3.org/2000/svg">
<path fill-rule="evenodd" clip-rule="evenodd" d="M300.3 32.9H299V58.7H304C305 57.4 305.9 55.9 306.6 54.3C309.8 46.5 307 37.7 300.3 32.9ZM307.6 58.8H324.8V48C317.3 47.7 310.5 52.1 307.6 58.8ZM305.5 32.9C308.4 40.7 316.4 45.6 324.8 44.4V32.9H305.5Z" fill="#D60B52"/>
<path fill-rule="evenodd" clip-rule="evenodd" d="M312.4 52.3C315 53.8 317.3 56.1 318.8 58.8H324.7V48C320.2 47.8 315.8 49.4 312.4 52.3ZM299 47.3V58.8H304C305 57.5 305.9 56 306.6 54.4C308 51 308.3 47.4 307.6 44.1C304.9 45.9 302 47 299 47.3ZM318.3 32.9H305.5C307.3 37.7 311 41.4 315.5 43.2C315.4 39.6 316.4 36 318.3 32.9Z" fill="#A61F5E"/>
<path fill-rule="evenodd" clip-rule="evenodd" d="M287.3 45.9C290.6 42.4 293 37.9 294 33H268.2V58.8H294C293.1 53.8 290.7 49.4 287.3 45.9Z" fill="#64B8E1"/>
<path fill-rule="evenodd" clip-rule="evenodd" d="M286.7 32.9H268.2V37.6C272.8 37.6 277.1 38.8 280.8 40.8C283.2 38.6 285.2 35.9 286.7 32.9ZM280.9 50.8C277.2 52.9 272.8 54 268.3 54V58.7H286.8C285.2 55.8 283.2 53.1 280.9 50.8Z" fill="#BEE2E9"/>
<path fill-rule="evenodd" clip-rule="evenodd" d="M268.2 37.7V43.2C270.3 43.9 272.4 44.8 274.3 45.9C276.7 44.5 278.9 42.8 280.8 40.9C277.1 38.8 272.8 37.7 268.2 37.7ZM268.2 48.5V54C272.8 54 277.1 52.8 280.8 50.8C278.9 48.9 276.7 47.2 274.3 45.8C272.4 47 270.4 47.9 268.2 48.5Z" fill="#0085BA"/>
<path fill-rule="evenodd" clip-rule="evenodd" d="M299 28H324.8V16.8H299V28ZM299 2.20001V14.5H324.8V2.20001H299Z" fill="#BCCF00"/>
<path fill-rule="evenodd" clip-rule="evenodd" d="M299 24.5H324.8V19.2H299V24.5ZM299 2.20001V11.3H324.8V2.20001H299Z" fill="#3AAA35"/>
<path fill-rule="evenodd" clip-rule="evenodd" d="M281.6 20.2C279.9 19.1 278.4 17.7 277.4 16.1C277 14.3 277.2 12.3 278.3 10.6C280.4 7.20001 284.9 6.20001 288.2 8.20001C291.6 10.3 292.6 14.7 290.5 18.1C290.2 18.6 289.8 19.1 289.3 19.5C288.1 20.3 286.8 20.8 285.4 20.9C288.7 21.2 291.9 19.8 294 17.1V2.10001H268.2V28H294V21.2C290.1 22.8 285.5 22.6 281.6 20.2Z" fill="#FBBA00"/>
<path fill-rule="evenodd" clip-rule="evenodd" d="M276.2 14C275.4 10.9 275.8 7.50001 277.6 4.60001C278.2 3.70001 278.8 2.90001 279.5 2.20001H276.6C274.7 6.00001 274.6 10.3 276.2 14ZM290.2 28H294.1V25.4C292.9 26.5 291.6 27.3 290.2 28ZM269.8 2.20001H268.3V4.40002C268.4 4.30002 268.4 4.20002 268.5 4.00002C268.8 3.40002 269.3 2.80001 269.8 2.20001ZM268.2 21.4V28H275.3C274.8 27.8 274.3 27.5 273.9 27.2C271.5 25.7 269.6 23.7 268.2 21.4Z" fill="#F39200"/>
<path fill-rule="evenodd" clip-rule="evenodd" d="M281.6 20.2C275.4 16.4 273.3 8.50001 276.7 2.20001H272.8C268.6 9.00001 270.7 18 277.5 22.2C282.9 25.5 289.5 24.9 294.2 21.2C290.1 22.8 285.5 22.6 281.6 20.2ZM291.4 3.00002C290.9 2.70002 290.4 2.40001 289.8 2.20001H282.7C280.8 2.90001 279.1 4.30001 278 6.20001C277.1 7.60001 276.7 9.20001 276.6 10.7C276.8 9.80001 277.1 9.00001 277.6 8.20001C280 4.30001 285.2 3.00002 289.2 5.50002C293.1 7.90002 294.4 13.1 291.9 17.1C290.5 19.4 288 20.8 285.5 21.1C288.8 21.4 292 20 294.1 17.3V5.40002C293.3 4.50002 292.5 3.60002 291.4 3.00002Z" fill="#EF7D00"/>
<path d="M10.1 28.5L8 36H1.2L10.1 6.90002H18.7L27.8 36H20.7L18.5 28.5H10.1ZM17.5 23.6L15.7 17.4C15.2 15.7 14.7 13.5 14.2 11.8H14.1C13.7 13.5 13.2 15.7 12.8 17.4L11.1 23.6H17.5Z" fill="#706F6F"/>
<path d="M53.5 6.80002V36H47V12.3H40.4V19.2C40.4 26.7 39.4 32.5 35 35.1C33.5 35.9 31.5 36.5 29.2 36.5L28.4 31.2C29.8 31 31 30.4 31.7 29.6C33.5 27.8 33.9 24 33.9 19.6V6.80002H53.5Z" fill="#706F6F"/>
<path d="M65 6.80002V18.2H68.5C69.7 11.2 74.4 6.30002 81.2 6.30002C89.4 6.30002 93.9 13 93.9 21.1C93.9 30.7 88.5 36.4 80.8 36.4C73.6 36.4 69 31.1 68.3 23.7H65V36H58.4V6.80002H65ZM87.3 21.3C87.3 16 85.1 11.5 81.1 11.5C77.1 11.5 74.8 16 74.8 21.4C74.8 26.9 77.1 31.2 81.1 31.2C85.1 31.2 87.3 27 87.3 21.3Z" fill="#706F6F"/>
<path d="M121.7 24.8C121.6 21.3 121.4 17.1 121.4 12.8H121.3C120.3 16.5 119.1 20.7 118 24.1L114.5 35.5H109.4L106.3 24.3C105.3 20.8 104.4 16.7 103.7 12.9H103.6C103.5 16.8 103.3 21.3 103.1 25L102.5 36.1H96.4L98.3 7.00002H107.1L110 16.7C111 20.1 111.8 23.7 112.5 27.1H112.7C113.5 23.7 114.5 19.9 115.5 16.6L118.6 6.90002H127.2L128.8 36H122.4L121.7 24.8Z" fill="#706F6F"/>
<path d="M138.2 12.4H130.3V6.90002H152.7V12.4H144.8V36H138.2V12.4Z" fill="#706F6F"/>
<path d="M155.4 7.20001C157.4 6.90001 160.3 6.60001 164.3 6.60001C168.4 6.60001 171.3 7.40002 173.2 8.90002C175.1 10.4 176.3 12.8 176.3 15.6C176.3 18.4 175.4 20.9 173.6 22.5C171.4 24.6 168 25.6 164.1 25.6C163.2 25.6 162.5 25.6 161.9 25.4V36H155.4V7.20001V7.20001ZM161.9 20.4C162.5 20.5 163.1 20.6 164.1 20.6C167.6 20.6 169.8 18.8 169.8 15.9C169.8 13.2 167.9 11.6 164.6 11.6C163.3 11.6 162.4 11.7 161.9 11.8V20.4V20.4Z" fill="#706F6F"/>
<path d="M196.9 23.6H186.2V30.5H198.2V35.9H179.7V6.80002H197.6V12.2H186.2V18.2H196.9V23.6Z" fill="#706F6F"/>
<path d="M207.8 6.80002V15.4C207.8 20.1 207.7 24.7 207.5 28.6H207.6C209.2 25.2 211.1 21.3 212.8 18.2L219.1 6.80002H225.8V36H219.8V27.4C219.8 22.9 219.9 18.9 220.3 15.1H220.2C218.9 18.6 217 22.4 215.2 25.5L209.3 36H201.8V6.80002H207.8ZM211.9 0.200012C212 1.90001 212.5 2.80002 213.8 2.80002C215.1 2.80002 215.7 1.80001 215.8 0.200012H220.3C220 3.90001 217.6 5.50002 213.7 5.50002C209.9 5.50002 207.8 3.80001 207.4 0.200012H211.9Z" fill="#706F6F"/>
<path d="M253.8 6.80002V30.7L256.7 30.9L256.4 43.3H251.4L251.1 36H234L233.7 43.3H228.7L228.4 30.9L230.9 30.7C232.1 28.7 233 26.5 233.7 24.2C234.5 21.3 234.8 18.1 234.8 14.5V6.70001H253.8V6.80002ZM240.9 16.1C240.9 19.5 240.5 22.8 239.6 25.7C239.1 27.5 238.3 29.2 237.6 30.6H247.3V12.2H240.9V16.1Z" fill="#706F6F"/>
<path d="M1.89999 53.6H5.3C5.2 52.2 4.3 51 2.8 51C2.2 51 1.69999 51.2 1.19999 51.4L0.999992 50.7C1.49999 50.5 2.19999 50.3 2.89999 50.3C5.19999 50.3 6.39999 52 6.39999 54.1C6.39999 56.5 4.8 57.9 2.8 57.9C2.1 57.9 1.39999 57.8 0.899994 57.5L1.09999 56.7C1.49999 56.9 2.09999 57 2.69999 57C4.29999 57 5.29999 55.8 5.39999 54.3H1.89999V53.6V53.6Z" fill="#706F6F"/>
<path d="M8.49999 50.3V53.6H8.8L11.3 50.3H12.4L9.59999 53.7C10.8 53.9 11.3 54.6 11.7 55.6C12 56.4 12.2 57 12.5 57.7H11.5C11.2 57.2 11 56.5 10.8 56C10.5 55 9.99999 54.3 8.69999 54.3H8.39999V57.7H7.39999V50.3H8.49999V50.3Z" fill="#706F6F"/>
<path d="M18.5 57.5C18.2 57.7 17.4 57.9 16.5 57.9C14.4 57.9 12.8 56.6 12.8 54.1C12.8 51.8 14.4 50.2 16.7 50.2C17.6 50.2 18.2 50.4 18.5 50.5L18.3 51.3C17.9 51.1 17.4 51 16.8 51C15.1 51 13.9 52.1 13.9 54.1C13.9 55.9 14.9 57.1 16.7 57.1C17.3 57.1 17.9 57 18.3 56.8L18.5 57.5Z" fill="#706F6F"/>
<path d="M20.7 50.3V53.6H21L23.5 50.3H24.6L21.8 53.7C23 53.9 23.5 54.6 23.9 55.6C24.2 56.4 24.4 57 24.7 57.7H23.7C23.4 57.2 23.2 56.5 23 56C22.7 55 22.2 54.3 20.9 54.3H20.6V57.7H19.6V50.3H20.7V50.3Z" fill="#706F6F"/>
<path d="M30.9 50.3V57.7H29.9V51.1H27.5V53.3C27.5 54.9 27.4 56.7 26.4 57.4C26.1 57.6 25.7 57.8 25.3 57.8L25.2 57C25.5 57 25.8 56.8 26 56.6C26.6 56 26.6 54.6 26.6 53.4V50.3H30.9Z" fill="#706F6F"/>
<path d="M33.6 50.3V53.5H34.7C34.9 51.4 36.1 50.2 37.9 50.2C39.8 50.2 41 51.8 41 54C41 56.6 39.6 57.9 37.8 57.9C36 57.9 34.8 56.5 34.7 54.4H33.6V57.8H32.6V50.4H33.6V50.3ZM39.9 54C39.9 52.5 39.2 51 37.7 51C36.2 51 35.5 52.5 35.5 54.1C35.5 55.7 36.3 57.1 37.7 57.1C39.2 57.1 39.9 55.7 39.9 54Z" fill="#706F6F"/>
<path d="M41.7 50.8C42.2 50.5 42.8 50.2 43.7 50.2C45 50.2 45.9 50.9 45.9 52C45.9 52.9 45.2 53.6 44.4 53.8C45.4 53.9 46.2 54.6 46.2 55.7C46.2 57.2 44.9 57.9 43.5 57.9C42.8 57.9 42.1 57.8 41.6 57.4L41.9 56.7C42.3 56.9 43 57.2 43.6 57.2C44.7 57.2 45.3 56.6 45.3 55.8C45.3 54.7 44.2 54.4 43.3 54.4H42.9V53.7H43.3C44.3 53.7 45 53.1 45 52.3C45 51.5 44.5 51.1 43.7 51.1C43.1 51.1 42.6 51.3 42.1 51.6L41.7 50.8Z" fill="#706F6F"/>
<path d="M48.3 50.3V53.4C48.3 54.6 48.3 55.5 48.2 56.5C48.6 55.7 49 54.9 49.6 54L52 50.2H53V57.6H52.1V54.4C52.1 53.2 52.1 52.3 52.2 51.4C51.8 52.2 51.3 53.1 50.8 53.9L48.5 57.6H47.5V50.2H48.3V50.3Z" fill="#706F6F"/>
<path d="M54.6 50.5C55 50.4 55.7 50.3 56.3 50.3C57.3 50.3 57.9 50.5 58.3 50.8C58.7 51.1 58.9 51.5 58.9 52.1C58.9 52.8 58.4 53.5 57.6 53.7C58.3 53.9 59.1 54.4 59.1 55.5C59.1 56.1 58.8 56.6 58.5 57C58 57.5 57.2 57.7 55.9 57.7C55.2 57.7 54.7 57.7 54.4 57.6V50.5H54.6ZM55.6 53.5H56.5C57.5 53.5 58.1 53 58.1 52.2C58.1 51.3 57.5 51 56.5 51C56.1 51 55.8 51 55.7 51.1V53.5H55.6ZM55.6 57C55.8 57 56.1 57 56.4 57C57.4 57 58.3 56.6 58.3 55.6C58.3 54.6 57.4 54.2 56.4 54.2H55.6V57Z" fill="#706F6F"/>
<path d="M61.5 50.3V53.4H65.1V50.3H66.1V57.7H65.1V54.2H61.5V57.7H60.5V50.3H61.5Z" fill="#706F6F"/>
<path d="M68.7 50.3V53.1C68.9 53.1 69.3 53 69.6 53C71.1 53 72.4 53.7 72.4 55.3C72.4 56 72.2 56.5 71.8 56.9C71.2 57.5 70.2 57.8 69.2 57.8C68.5 57.8 68 57.8 67.7 57.7V50.3H68.7V50.3ZM68.7 57C68.9 57 69.2 57.1 69.5 57.1C70.6 57.1 71.5 56.6 71.5 55.4C71.5 54.2 70.5 53.8 69.5 53.8C69.1 53.8 68.9 53.8 68.7 53.8V57ZM74.3 50.3V57.7H73.3V50.3H74.3Z" fill="#706F6F"/>
<path d="M76.9 50.3V53.4C76.9 54.6 76.9 55.5 76.8 56.5C77.2 55.7 77.6 54.9 78.2 54L80.6 50.2H81.6V57.6H80.7V54.4C80.7 53.2 80.7 52.3 80.8 51.4C80.4 52.2 79.9 53.1 79.4 53.9L77.1 57.6H76.1V50.2H76.9V50.3ZM78.1 48.8C78.1 49.1 78.3 49.5 78.8 49.5C79.3 49.5 79.4 49.2 79.5 48.8H80.2C80.1 49.5 79.7 50 78.8 50C77.9 50 77.5 49.5 77.4 48.8H78.1Z" fill="#706F6F"/>
<path d="M90.6 50.3V56.9H91.2L91.1 59.4H90.4L90.3 57.6H85.6L85.5 59.4H84.8L84.7 56.9H85.3C85.6 56.4 85.9 55.9 86 55.3C86.3 54.4 86.4 53.5 86.4 52.2V50.3H90.6ZM87.4 52.5C87.4 53.7 87.3 54.7 87 55.5C86.8 56 86.6 56.5 86.4 56.9H89.7V51.1H87.4V52.5Z" fill="#706F6F"/>
<path d="M93.4 50.3V53.4C93.4 54.6 93.4 55.5 93.3 56.5C93.7 55.7 94.1 54.9 94.7 54L97.1 50.2H98.1V57.6H97.2V54.4C97.2 53.2 97.2 52.3 97.3 51.4C96.9 52.2 96.4 53.1 95.9 53.9L93.6 57.6H92.6V50.2H93.4V50.3Z" fill="#706F6F"/>
<path d="M104.9 57.5C104.6 57.7 103.8 57.9 102.9 57.9C100.8 57.9 99.2 56.6 99.2 54.1C99.2 51.8 100.8 50.2 103.1 50.2C104 50.2 104.6 50.4 104.9 50.5L104.7 51.3C104.3 51.1 103.8 51 103.2 51C101.5 51 100.3 52.1 100.3 54.1C100.3 55.9 101.3 57.1 103.1 57.1C103.7 57.1 104.3 57 104.7 56.8L104.9 57.5Z" fill="#706F6F"/>
<path d="M107.9 51.2H105.6V50.4H111.1V51.2H108.8V57.8H107.8V51.2H107.9Z" fill="#706F6F"/>
<path d="M111.9 50.4C112.4 50.3 113 50.3 113.7 50.3C114.6 50.3 115.3 50.5 115.8 50.9C116.2 51.3 116.4 51.8 116.4 52.5C116.4 53.2 116.2 53.7 115.8 54.1C115.3 54.6 114.5 54.9 113.5 54.9C113.2 54.9 112.9 54.9 112.7 54.8V57.8H111.7V50.4H111.9ZM112.9 54C113.1 54.1 113.4 54.1 113.7 54.1C114.9 54.1 115.6 53.5 115.6 52.5C115.6 51.5 114.9 51 113.9 51C113.5 51 113.2 51 113 51.1V54H112.9Z" fill="#706F6F"/>
<path d="M118.7 50.3V53.4C118.7 54.6 118.7 55.5 118.6 56.5C119 55.7 119.4 54.9 120 54L122.4 50.2H123.4V57.6H122.5V54.4C122.5 53.2 122.5 52.3 122.6 51.4C122.2 52.2 121.7 53.1 121.2 53.9L118.9 57.6H117.9V50.2H118.7V50.3Z" fill="#706F6F"/>
<path d="M129.2 50.3V51.1H126V53.1C126.2 53.1 126.7 53 126.9 53C127.6 53 128.3 53.2 128.8 53.5C129.4 53.9 129.7 54.4 129.7 55.3C129.7 56 129.5 56.5 129.1 56.9C128.5 57.5 127.5 57.7 126.5 57.7C125.8 57.7 125.3 57.7 125 57.6V50.2H129.2V50.3ZM126 57C126.2 57 126.5 57.1 126.8 57.1C127.4 57.1 128 56.9 128.4 56.5C128.7 56.2 128.8 55.9 128.8 55.4C128.8 54.8 128.6 54.4 128.2 54.2C127.8 53.9 127.3 53.8 126.8 53.8C126.6 53.8 126.3 53.8 126 53.8V57Z" fill="#706F6F"/>
<path d="M132 50.3V53.1C132.2 53.1 132.7 53 132.9 53C134.4 53 135.8 53.7 135.8 55.3C135.8 56 135.6 56.5 135.2 56.9C134.6 57.5 133.6 57.8 132.5 57.8C131.8 57.8 131.3 57.8 131 57.7V50.3H132V50.3ZM132 57C132.2 57 132.5 57.1 132.8 57.1C133.9 57.1 134.8 56.6 134.8 55.4C134.8 54.2 133.9 53.8 132.8 53.8C132.6 53.8 132.3 53.8 132 53.8V57Z" fill="#706F6F"/>
<path d="M137.9 50.3V53.5H139C139.2 51.4 140.4 50.2 142.2 50.2C144.1 50.2 145.3 51.8 145.3 54C145.3 56.6 143.9 57.9 142.1 57.9C140.3 57.9 139.1 56.5 139 54.4H137.9V57.8H136.9V50.4H137.9V50.3ZM144.3 54C144.3 52.5 143.6 51 142.1 51C140.6 51 139.9 52.5 139.9 54.1C139.9 55.7 140.7 57.1 142.1 57.1C143.5 57.1 144.3 55.7 144.3 54Z" fill="#706F6F"/>
<path d="M147.8 51.2H145.5V50.4H151V51.2H148.7V57.8H147.7V51.2H147.8Z" fill="#706F6F"/>
<path d="M157.8 54C157.8 56.5 156.2 57.9 154.4 57.9C152.4 57.9 151.1 56.4 151.1 54.1C151.1 51.7 152.6 50.2 154.5 50.2C156.5 50.2 157.8 51.8 157.8 54ZM152.1 54.1C152.1 55.7 153 57.1 154.5 57.1C156 57.1 156.9 55.7 156.9 54C156.9 52.5 156.1 51 154.5 51C152.9 51 152.1 52.5 152.1 54.1Z" fill="#706F6F"/>
<path d="M159.1 50.4C159.6 50.3 160.2 50.3 160.9 50.3C161.8 50.3 162.5 50.5 163 50.9C163.4 51.3 163.6 51.8 163.6 52.5C163.6 53.2 163.4 53.7 163 54.1C162.5 54.6 161.7 54.9 160.7 54.9C160.4 54.9 160.2 54.9 159.9 54.8V57.8H158.9V50.4H159.1ZM160 54C160.2 54.1 160.5 54.1 160.8 54.1C162 54.1 162.7 53.5 162.7 52.5C162.7 51.5 162 51 161 51C160.6 51 160.3 51 160.1 51.1V54H160Z" fill="#706F6F"/>
<path d="M171.2 50.3V51.1H168.2V57.7H167.2V50.3H171.2Z" fill="#706F6F"/>
<path d="M173 50.3V53.6H173.3L175.8 50.3H176.9L174.1 53.7C175.3 53.9 175.8 54.6 176.2 55.6C176.5 56.4 176.7 57 177 57.7H176C175.7 57.2 175.5 56.5 175.3 56C175 55 174.5 54.3 173.2 54.3H173V57.7H172V50.3H173V50.3Z" fill="#706F6F"/>
<path d="M181.5 55.4L180.7 57.7H179.7L182.2 50.3H183.3L185.8 57.7H184.8L184 55.4H181.5ZM184 54.7L183.3 52.6C183.1 52.1 183 51.7 182.9 51.2C182.8 51.6 182.7 52.1 182.5 52.5L181.8 54.6H184V54.7Z" fill="#706F6F"/>
<path d="M192.3 50.3V57.7H191.3V51.1H188.9V53.3C188.9 54.9 188.8 56.7 187.8 57.4C187.5 57.6 187.1 57.8 186.7 57.8L186.6 57C186.9 57 187.2 56.8 187.4 56.6C188 56 188 54.6 188 53.4V50.3H192.3Z" fill="#706F6F"/>
<path d="M194.9 50.3V53.5H196C196.2 51.4 197.4 50.2 199.2 50.2C201.1 50.2 202.3 51.8 202.3 54C202.3 56.6 200.9 57.9 199.1 57.9C197.3 57.9 196.1 56.5 196 54.4H194.9V57.8H193.9V50.4H194.9V50.3ZM201.3 54C201.3 52.5 200.6 51 199.1 51C197.6 51 196.9 52.5 196.9 54.1C196.9 55.7 197.7 57.1 199.1 57.1C200.5 57.1 201.3 55.7 201.3 54Z" fill="#706F6F"/>
<path d="M204.8 51.2H202.5V50.4H208V51.2H205.7V57.8H204.7V51.2H204.8Z" fill="#706F6F"/>
<path d="M212.7 54.3H209.8V57H213V57.8H208.8V50.4H212.8V51.2H209.8V53.5H212.7V54.3Z" fill="#706F6F"/>
<path d="M218.3 57.8L217.3 56.2C216.9 55.6 216.7 55.2 216.5 54.7C216.3 55.1 216.1 55.5 215.7 56.2L214.8 57.8H213.7L216 54L213.8 50.3H214.9L215.9 52C216.2 52.5 216.4 52.9 216.6 53.3C216.8 52.9 217 52.5 217.3 52L218.3 50.3H219.4L217.1 53.9L219.4 57.7H218.3V57.8Z" fill="#706F6F"/>
<path d="M222.9 50.5C223.3 50.4 224 50.3 224.6 50.3C225.6 50.3 226.2 50.5 226.6 50.8C227 51.1 227.2 51.5 227.2 52.1C227.2 52.8 226.7 53.5 225.9 53.7C226.6 53.9 227.4 54.4 227.4 55.5C227.4 56.1 227.1 56.6 226.8 57C226.3 57.5 225.5 57.7 224.2 57.7C223.5 57.7 223 57.7 222.7 57.6V50.5H222.9ZM223.9 53.5H224.8C225.8 53.5 226.4 53 226.4 52.2C226.4 51.3 225.8 51 224.8 51C224.4 51 224.1 51 224 51.1V53.5H223.9ZM223.9 57C224.1 57 224.4 57 224.7 57C225.7 57 226.6 56.6 226.6 55.6C226.6 54.6 225.7 54.2 224.7 54.2H223.9V57Z" fill="#706F6F"/>
<path d="M236.3 50.3V56.9H236.9L236.8 59.4H236.1L236 57.6H231.3L231.2 59.4H230.5L230.4 56.9H230.9C231.2 56.4 231.5 55.9 231.6 55.3C231.9 54.4 232 53.5 232 52.2V50.3H236.3ZM233 52.5C233 53.7 232.9 54.7 232.6 55.5C232.4 56 232.2 56.5 232 56.9H235.3V51.1H233V52.5Z" fill="#706F6F"/>
<path d="M238.1 50.5C238.5 50.4 239.2 50.3 239.8 50.3C240.8 50.3 241.4 50.5 241.8 50.8C242.2 51.1 242.4 51.5 242.4 52.1C242.4 52.8 241.9 53.5 241.1 53.7C241.8 53.9 242.6 54.4 242.6 55.5C242.6 56.1 242.3 56.6 242 57C241.5 57.5 240.7 57.7 239.4 57.7C238.7 57.7 238.2 57.7 237.9 57.6V50.5H238.1ZM239.1 53.5H240C241 53.5 241.6 53 241.6 52.2C241.6 51.3 241 51 240 51C239.6 51 239.3 51 239.2 51.1V53.5H239.1ZM239.1 57C239.3 57 239.6 57 239.9 57C240.9 57 241.8 56.6 241.8 55.6C241.8 54.6 240.9 54.2 239.9 54.2H239.1V57Z" fill="#706F6F"/>
<path d="M247.6 50V50.7C249.2 50.8 250.7 51.7 250.7 54C250.7 56.3 249.1 57.2 247.6 57.3V58H246.7V57.3C245.2 57.2 243.6 56.4 243.6 54C243.6 51.6 245.3 50.7 246.7 50.6V50H247.6ZM246.7 51.4C245.7 51.5 244.6 52.1 244.6 54.1C244.6 55.9 245.6 56.6 246.7 56.7V51.4ZM247.6 56.7C248.7 56.6 249.7 55.9 249.7 54.1C249.7 52.2 248.6 51.5 247.6 51.4V56.7Z" fill="#706F6F"/>
<path d="M258.3 54C258.3 56.5 256.7 57.9 254.9 57.9C252.9 57.9 251.6 56.4 251.6 54.1C251.6 51.7 253.1 50.2 255 50.2C257 50.2 258.3 51.8 258.3 54ZM252.5 54.1C252.5 55.7 253.4 57.1 254.9 57.1C256.4 57.1 257.3 55.7 257.3 54C257.3 52.5 256.5 51 254.9 51C253.3 51 252.5 52.5 252.5 54.1Z" fill="#706F6F"/>
</svg>
