<svg xmlns="http://www.w3.org/2000/svg" xmlns:xlink="http://www.w3.org/1999/xlink" viewBox="0 0 1378.86 426.08"><defs><style>.cls-1{fill:none;}.cls-2{clip-path:url(#clip-path);}.cls-3{fill:#1c75bc;}.cls-4{clip-path:url(#clip-path-2);}.cls-5{fill:#010101;}</style><clipPath id="clip-path" transform="translate(0 -0.88)"><rect class="cls-1" width="1378.8" height="427.92"/></clipPath><clipPath id="clip-path-2" transform="translate(0 -0.88)"><rect class="cls-1" width="1378.86" height="427.92"/></clipPath></defs><title>Ресурс 1</title><g id="Слой_2" data-name="Слой 2"><g id="Слой_1-2" data-name="Слой 1"><g class="cls-2"><path class="cls-3" d="M3.42,425c-1.92-1.28-3-3.6-3.36-6.88a42.06,42.06,0,0,1,.4-7.76c.4-3.52.64-5.92.8-7.36L49.74,15.12C50.38,9.84,51.82,6.16,54,4S59.9.88,65.18.88H154.3c4.72,0,8.08.64,10,1.84s3,3.44,3.28,6.48c.16,1.44-.4,6.56-1.6,15.44l-1.12,11.28c-.64,5.84-2,10-4.16,12.56s-6,3.76-11.6,3.76H109.82L69,375.2H107.5c5,0,8.4.64,10.24,1.84s2.8,3.44,3.12,6.48a47.17,47.17,0,0,1-.4,7.36q-.6,5.28-1.2,8.16l-1.12,11.28q-.84,9.6-4.32,13c-2.32,2.24-6.16,3.36-11.44,3.36H13c-4.48.24-7.68-.4-9.6-1.68" transform="translate(0 -0.88)"/></g><g class="cls-4"><path d="M329,166.56q-1-11.28-9.6-16.56c-5.76-3.52-14.72-5.2-27-5.2q-20.88,0-45.76,7.92c-3,1.12-6.32,2.24-9.92,3.36a32.63,32.63,0,0,1-9.28,1.68,8.93,8.93,0,0,1-7.2-3.12c-1.68-2.08-3.52-6.08-5.44-11.92q-.6-1.68-2.4-7.92a62,62,0,0,1-2.24-11.28,11.64,11.64,0,0,1,1.44-7.36q1.8-2.76,6.48-5a117,117,0,0,1,14.32-5.6q27.24-9.24,69.44-9.2,45.24,0,65.84,16.56c13.76,11,21.44,25.28,23,42.88a84,84,0,0,1,.16,11.12c-.24,4-.56,7.68-1,10.88s-.72,5.68-.8,7.36l-6.72,52.32c-1.68,15.92-2.16,28.16-1.36,36.8a69.85,69.85,0,0,0,6.64,23.44c1,1.68,1.92,3.36,2.72,5s1.52,3.12,2.08,4.4a13.4,13.4,0,0,1,1,4,9.74,9.74,0,0,1-2.32,7.36c-1.76,2.08-5.2,4.4-10.24,6.88l-15.6,7.92c-7,3-12.56,4.64-16.72,4.64-3.6,0-6.88-2-9.68-5.84S333,322,330.06,313.68l-3.28-8.8H326a93.6,93.6,0,0,1-32.16,24.48q-18.48,8.52-43.2,8.56c-13.36,0-25.44-2.4-36.16-7.12a61.3,61.3,0,0,1-25.92-21c-6.56-9.2-10.32-20.24-11.44-33Q173,230,208.3,208t101-22h18.4l.56-7.52a34.66,34.66,0,0,0,.8-11.92m-73,71.12Q237.86,248.12,239.5,267c.64,7.28,3.52,12.88,8.56,17S260.46,290,269.9,290q21.72,0,34.8-13.84c8.64-9.2,14.08-21,16.16-35.52l1.76-13.36H311.34c-24.88-.08-43.28,3.44-55.36,10.4" transform="translate(0 -0.88)"/><path d="M460.7,57.2c2-3,5.76-5.68,11.44-8.16l21-8.8c7-3,13.28-4.56,18.8-4.56,3,0,5.36.64,6.88,1.92a7.58,7.58,0,0,1,2.56,5.6,69.6,69.6,0,0,1-.24,7.12l-7.36,59h55.68q7.56,0,10.56,1.68c2.08,1.12,3.2,3.2,3.52,6.24.24,2.48-.16,7.84-1.12,15.92l-1.28,9.2a41.61,41.61,0,0,1-2.64,10.48,8.39,8.39,0,0,1-4.8,4.56,25.11,25.11,0,0,1-9.12,1.28H507.66l-11.28,90.8c-1.52,11.12-2.16,18.56-1.84,22.16.88,9.76,6.72,14.64,17.6,14.64a66.8,66.8,0,0,0,14.32-1.68,144,144,0,0,0,14.08-3.76c6.8-1.92,11.44-3,14-3a7.11,7.11,0,0,1,5.92,2.72c1.44,1.84,2.72,5.2,4,10.24,1.28,4.72,2.16,8.56,2.72,11.52s.88,5.6,1.12,8.16c.4,4.16-.48,7.36-2.48,9.6s-5.76,4.56-11.12,7.12c-6.72,3-15.68,5.6-27,7.52a179,179,0,0,1-29.44,3q-30.12,0-47.12-12.56c-11.36-8.4-17.76-21-19.2-38.08-.72-8.4-.16-19.36,1.68-33l11.76-95.36H425.34c-4.48,0-7.6-.72-9.36-2.08a7.82,7.82,0,0,1-3-5.84,28.32,28.32,0,0,1,.16-7.52l.4-4.56c.64-5.28,2.08-9,4.24-11.28s6.16-4.16,11.84-5.84q11.4-3.72,16.8-8.4c3.6-3,5.76-7.68,6.32-13.84l3.76-28.48c.88-6.16,2.24-10.72,4.24-13.6" transform="translate(0 -0.88)"/><path d="M632.22,119.76q25.56-23,75.76-23h8.4c21,0,38.56,3.2,53,9.6s25.36,15.2,33,26.32,12.16,24.16,13.44,38.88a180.5,180.5,0,0,1-1.44,41l-4,30.56c-3.12,22-8.88,40-17.28,53.76a76.36,76.36,0,0,1-35,30.72q-22.32,10.08-55.84,10.08h-8.8q-30.12,0-51.68-9.44T608.3,301.68q-12-17.16-14-40.56c-.88-10.08-.56-22,1-36l4.56-33.92q6.72-48.48,32.32-71.44M752.3,177.44q-2.76-31.32-37.84-31.36H712c-15.36,0-26.88,5.12-34.64,15.28s-12.88,25-15.36,44.56l-2.72,21.36c-1.44,12.56-1.76,22.72-1.12,30.56q1.32,15,10.56,22.8c6.16,5.2,15.28,7.76,27.2,7.76h2.48c15.36,0,26.88-5,34.64-15.28s12.88-25,15.36-44.56l2.8-20.48a140.42,140.42,0,0,0,1.12-30.64" transform="translate(0 -0.88)"/></g><g class="cls-2"><path d="M863.34,105.12c2-2.24,5.84-3.36,11.44-3.36h28.48c4.72,0,7.92.88,9.6,2.48s3,5.28,4.08,10.88l1.44,11.28h1.28a80.26,80.26,0,0,1,29.28-21.76,87.13,87.13,0,0,1,35.52-7.52c29,0,48.48,10.88,58.48,32.64,12.8-10,25.2-18,37.2-23.84a87.33,87.33,0,0,1,38.56-8.8q31,0,46.56,15.44T1183,152.72a128.43,128.43,0,0,1-.16,22.16c-.72,8.08-1.52,16.16-2.48,24.24l-14.8,117.52c-.8,6.72-2.32,11.12-4.48,13.2s-5.92,3.12-11.2,3.12H1116c-4.72,0-8-.56-9.76-1.68s-2.8-3.2-3-6.24c-.24-2.8.16-8.08,1.12-15.92l13.84-110c.16-1.36.48-4.24,1.12-8.56s1-8.48,1.2-12.56a72.17,72.17,0,0,0-.16-11.12c-.56-6.4-2.88-11.52-7-15.28s-10.16-5.6-18.24-5.6a52.52,52.52,0,0,0-20.72,4.56,70.45,70.45,0,0,0-19.2,12.16,9.69,9.69,0,0,0-4,4.8c-.56,1.84-1.2,4.56-2,8.16l-18,140.64c-.8,6.72-2.32,11.12-4.48,13.36s-5.92,3.36-11.2,3.36H981.58c-4.48,0-7.68-.56-9.76-1.68s-3.2-3.36-3.52-6.72a40.66,40.66,0,0,1,.56-7.92c.48-3.6.88-6.16,1-7.52l13.76-110.4,1-8.4c.48-3.92.88-7.84,1-11.68A80.74,80.74,0,0,0,985.5,167c-.56-6.4-2.88-11.52-7-15.28s-10.16-5.6-18.24-5.6q-19.68,0-39.92,16.72a16.23,16.23,0,0,0-3.92,5.2,24.26,24.26,0,0,0-1.6,7.76l-18,140.88c-.8,6.72-2.32,11.12-4.48,13.2s-5.92,3.12-11.2,3.12H847.26c-4.72,0-8.08-.64-10-1.92s-3-3.44-3.28-6.48.16-8.24,1.12-15.44L858.94,118c.88-6.32,2.32-10.72,4.4-12.88" transform="translate(0 -0.88)"/><path class="cls-3" d="M1261.26,50.32a8.2,8.2,0,0,1-3.28-6.24c-.24-2.8.16-7.92,1.12-15.44l1.52-11.28q.84-9.6,4.32-13C1267.26,2.16,1271,1,1276.38,1h89.12c4.72,0,8.08.64,10,1.84s3,3.44,3.28,6.48a46.82,46.82,0,0,1-.32,8.4c-.4,3.6-.64,6-.8,7.12l-48.88,387.84c-.64,5.28-2.08,9-4.24,11.12s-5.76,3.12-10.8,3.12h-89.12c-4.72,0-8.08-.64-10-1.92s-3-3.44-3.28-6.48a37.22,37.22,0,0,1,.56-8.16c.48-3.76.88-6.24,1-7.36l1.12-11.28c.64-5.84,1.92-10,3.92-12.56s5.92-3.76,11.84-3.76h39.36l40.32-323h-38.24c-4.72,0-8.08-.72-10-2.16" transform="translate(0 -0.88)"/></g><g class="cls-4"><path class="cls-5" d="M194,388.32h4.24l-2.16,17.36c-.32,2.88-.72,5.2-1,7.12s-.8,3.84-1.28,5.92l16.16-30.4h5.6l-4.16,34.24H207.1l2.16-17.36a123.92,123.92,0,0,1,2.24-12.72l-16,30.08h-5.68Z" transform="translate(0 -0.88)"/><polygon class="cls-5" points="264.22 405.36 251.34 405.36 249.34 421.6 245.02 421.6 249.18 387.36 253.5 387.36 251.74 401.84 264.62 401.84 266.46 387.44 270.78 387.44 266.62 421.68 262.3 421.68 264.22 405.36"/><polygon class="cls-5" points="313.1 421.6 308.78 421.6 312.54 391.12 301.9 391.12 302.38 387.36 328.06 387.36 327.18 391.12 316.86 391.12 313.1 421.6"/><polygon class="cls-5" points="364.22 402.48 376.86 402.48 376.46 406 363.74 406 362.22 418.08 377.82 418.08 377.42 421.52 357.58 421.52 361.74 387.28 381.18 387.28 380.22 390.88 365.58 390.88 364.22 402.48"/><path class="cls-5" d="M432.54,407.2a17.39,17.39,0,0,1-10,2.64h-4.4l-1.6,12.72H412.3l4.16-34.24h8.72c4.24,0,7.36.88,9.44,2.64s2.88,4.4,2.48,7.92c-.48,3.76-2,6.56-4.56,8.32m-1.6-13.76a8.46,8.46,0,0,0-5.68-1.68h-5l-1.76,14.64h4.8a10.65,10.65,0,0,0,6.24-1.68c1.6-1.12,2.56-3,2.88-5.84.32-2.48-.16-4.32-1.52-5.44" transform="translate(0 -0.88)"/><polygon class="cls-5" points="485.1 405.36 472.22 405.36 470.22 421.6 465.9 421.6 470.06 387.36 474.38 387.36 472.62 401.84 485.5 401.84 487.26 387.44 491.58 387.44 487.34 421.68 483.02 421.68 485.1 405.36"/><polygon class="cls-5" points="529.82 402.48 542.54 402.48 542.14 406 529.42 406 527.9 418.08 543.5 418.08 543.1 421.52 523.26 421.52 527.42 387.28 546.86 387.28 545.9 390.88 531.26 390.88 529.82 402.48"/><polygon class="cls-5" points="589.1 421.6 584.78 421.6 588.54 391.12 577.9 391.12 578.38 387.36 604.14 387.36 603.26 391.12 592.86 391.12 589.1 421.6"/><polygon class="cls-5" points="635.9 402.32 653.26 402.32 652.78 405.92 635.42 405.92 635.9 402.32"/><path class="cls-5" d="M691.66,413.76l-3.84,8.72h-4.24l15.36-34.24h5.44l7,34.24h-4.48l-1.68-8.72Zm12.8-3.52L701.1,392l-7.92,18.24Z" transform="translate(0 -0.88)"/><polygon class="cls-5" points="768.06 391.28 752.54 391.28 748.78 421.68 744.46 421.68 748.7 387.44 768.94 387.44 768.06 391.28"/><polygon class="cls-5" points="805.9 402.48 818.62 402.48 818.22 406 805.5 406 803.98 418.08 819.58 418.08 819.18 421.52 799.26 421.52 803.5 387.28 822.94 387.28 821.98 390.88 807.26 390.88 805.9 402.48"/><polygon class="cls-5" points="871.58 405.36 858.7 405.36 856.7 421.6 852.38 421.6 856.62 387.36 860.94 387.36 859.18 401.84 872.06 401.84 873.82 387.36 878.14 387.36 873.9 421.6 869.58 421.6 871.58 405.36"/><polygon class="cls-5" points="920.38 421.6 916.06 421.6 919.82 391.12 909.18 391.12 909.66 387.36 935.42 387.36 934.54 391.12 924.22 391.12 920.38 421.6"/><path class="cls-5" d="M986.06,388.56a15.1,15.1,0,0,1,4.16,2.48l-2.8,2.8a9.76,9.76,0,0,0-6.88-2.56,10.83,10.83,0,0,0-7.92,3.36c-2.24,2.24-3.6,5.76-4.24,10.64s-.08,8.4,1.52,10.64a8.2,8.2,0,0,0,7.12,3.36,12.52,12.52,0,0,0,4.48-.72,15.92,15.92,0,0,0,3.76-2.08l1.92,2.8A15.78,15.78,0,0,1,976.46,423,13.19,13.19,0,0,1,969.1,421a11.63,11.63,0,0,1-4.56-6,21.44,21.44,0,0,1-.8-9.6,24.35,24.35,0,0,1,3.12-9.52,16.79,16.79,0,0,1,6.08-6,15.23,15.23,0,0,1,7.6-2,14.22,14.22,0,0,1,5.52.72" transform="translate(0 -0.88)"/><polygon class="cls-5" points="1030.78 421.6 1026.46 421.6 1030.22 391.12 1019.58 391.12 1020.06 387.36 1045.82 387.36 1044.94 391.12 1034.62 391.12 1030.78 421.6"/><path class="cls-5" d="M1092.46,420.24a18.45,18.45,0,0,1-9.36,2.32h-9.2l4.24-34.24h8.4a15.53,15.53,0,0,1,8.4,2c2.16,1.36,3,3.52,2.64,6.64a7.42,7.42,0,0,1-2.48,5,9.8,9.8,0,0,1-4.88,2.48c5.12.88,7.44,3.68,6.88,8.4-.48,3.44-2,5.92-4.64,7.44m-1.36-12.4a8.2,8.2,0,0,0-5.2-1.44h-5.84l-1.52,12.48h5.68a10.69,10.69,0,0,0,5.44-1.28c1.6-.88,2.48-2.4,2.8-4.72s-.16-4.08-1.36-5m.72-14.72c-1-.88-2.64-1.28-4.8-1.28h-5.12l-1.36,11h5.52c4.24,0,6.56-1.92,7-5.68q.36-2.88-1.2-4.08" transform="translate(0 -0.88)"/><path class="cls-5" d="M1149,418.24a12.08,12.08,0,0,1-9.92,4.8c-4.08,0-7-1.6-8.72-4.72s-2.32-7.44-1.68-12.88a28.68,28.68,0,0,1,2.56-9.2,15.83,15.83,0,0,1,5-6.24,11.8,11.8,0,0,1,7.12-2.24c4,0,7,1.6,8.72,4.8s2.32,7.52,1.68,12.88-2.24,9.6-4.8,12.8m-.32-23.36a5.72,5.72,0,0,0-5.76-3.52,7.46,7.46,0,0,0-6.56,3.52c-1.6,2.4-2.64,5.92-3.28,10.56s-.32,8.08.72,10.48a5.74,5.74,0,0,0,5.68,3.52,7.47,7.47,0,0,0,6.56-3.52c1.6-2.32,2.64-5.84,3.2-10.48s.48-8.16-.56-10.56" transform="translate(0 -0.88)"/></g></g></g></svg>