<svg xmlns="http://www.w3.org/2000/svg" xmlns:xlink="http://www.w3.org/1999/xlink" viewBox="0 0 427.54 494"><defs><style>.cls-1{fill:none;}.cls-2{clip-path:url(#clip-path);}</style><clipPath id="clip-path"><rect class="cls-1" width="427.54" height="494"/></clipPath></defs><title>Ресурс 1</title><g id="Слой_2" data-name="Слой 2"><g id="Слой_1-2" data-name="Слой 1"><g class="cls-2"><path d="M370.8,0H143.88a7.5,7.5,0,0,0,0,15H370.8a41.79,41.79,0,0,1,41.74,41.75V437.26A41.79,41.79,0,0,1,370.8,479H290.88a7.5,7.5,0,0,0,0,15H370.8a56.8,56.8,0,0,0,56.74-56.74V56.75A56.81,56.81,0,0,0,370.8,0"/><path d="M141.88,0H56.74A56.81,56.81,0,0,0,0,56.75V437.26A56.8,56.8,0,0,0,56.74,494H297.88a7.5,7.5,0,0,0,0-15H56.74A41.79,41.79,0,0,1,15,437.26V56.75A41.79,41.79,0,0,1,56.74,15h85.14a7.5,7.5,0,0,0,0-15"/><path d="M55.27,64.74v91.52A11.76,11.76,0,0,0,67,168h293.5a11.76,11.76,0,0,0,11.74-11.74V64.74A11.76,11.76,0,0,0,360.52,53H67A11.76,11.76,0,0,0,55.27,64.74m15,3.26h287v85h-287Z"/><path d="M200.3,217.57a31.26,31.26,0,0,0-31.23-31.23H86.5a31.26,31.26,0,0,0-31.23,31.23v65.82A31.26,31.26,0,0,0,86.5,314.61h82.57a31.27,31.27,0,0,0,31.23-31.23Zm-15,65.82a16.25,16.25,0,0,1-16.23,16.23H86.5a16.24,16.24,0,0,1-16.23-16.23V217.57A16.24,16.24,0,0,1,86.5,201.34h82.57a16.25,16.25,0,0,1,16.23,16.23Z"/><path d="M153.48,241.83H136.35V224.7c0-3.39-3.39-6.62-8.56-6.62-4.85,0-8.73,3.23-8.73,6.63v17.13H101.77c-3.88,0-6.47,3.88-6.47,8.73,0,5.17,2.59,8.56,6.47,8.56h17.29v17.29c0,3.88,3.88,6.46,8.73,6.46,5.17,0,8.56-2.59,8.56-6.46V259.12h17.13c3.39,0,6.78-3.39,6.78-8.56,0-4.85-3.39-8.73-6.78-8.73"/><path d="M258.47,314.61H341a31.26,31.26,0,0,0,31.23-31.23V217.57A31.26,31.26,0,0,0,341,186.34H258.47a31.27,31.27,0,0,0-31.23,31.23v65.82a31.27,31.27,0,0,0,31.23,31.23m-16.23-97a16.24,16.24,0,0,1,16.23-16.23H341a16.25,16.25,0,0,1,16.23,16.23v65.82A16.25,16.25,0,0,1,341,299.61H258.47a16.24,16.24,0,0,1-16.23-16.23Z"/><path d="M278.59,259.12h42c3.39,0,6.79-3.39,6.79-8.56,0-4.85-3.4-8.73-6.79-8.73h-42c-3.88,0-6.47,3.88-6.47,8.73,0,5.17,2.59,8.56,6.47,8.56"/><path d="M169.08,332.89H86.5a31.26,31.26,0,0,0-31.23,31.23v65.82A31.26,31.26,0,0,0,86.5,461.17h82.58a31.26,31.26,0,0,0,31.23-31.23V364.12a31.26,31.26,0,0,0-31.23-31.23m16.23,97a16.25,16.25,0,0,1-16.23,16.23H86.5a16.25,16.25,0,0,1-16.23-16.23V364.12A16.24,16.24,0,0,1,86.5,347.89h82.57a16.25,16.25,0,0,1,16.23,16.23Z"/><path d="M138.46,396.42,152,377.63a4.83,4.83,0,0,0,1-2.56c0-3.66-6.59-7.93-10.37-7.93a4.49,4.49,0,0,0-3.66,1.83l-11.22,17.69-11.1-17.81a4,4,0,0,0-3.53-1.71c-4.15,0-10.49,4.27-10.49,7.93a4.91,4.91,0,0,0,1,2.56L117,396.3,102.6,416.43a4.26,4.26,0,0,0-1,2.68c0,3.66,6.71,7.81,10,7.81a5,5,0,0,0,3.9-1.71l12.2-18.54,12.32,18.54a4.54,4.54,0,0,0,3.66,1.71c4.14,0,10.25-4.39,10.25-7.81a4.16,4.16,0,0,0-1-2.68Z"/><path d="M227.24,429.94a31.26,31.26,0,0,0,31.23,31.23H341a31.26,31.26,0,0,0,31.23-31.23V364.12A31.26,31.26,0,0,0,341,332.89H258.47a31.26,31.26,0,0,0-31.23,31.23Zm15-65.82a16.25,16.25,0,0,1,16.23-16.23H341a16.25,16.25,0,0,1,16.23,16.23v65.82A16.25,16.25,0,0,1,341,446.17H258.47a16.24,16.24,0,0,1-16.23-16.23Z"/><path d="M278.75,422.07h41.69c3.39,0,6.79-3.39,6.79-8.56,0-4.85-3.39-8.73-6.79-8.73H278.75c-3.88,0-6.47,3.88-6.47,8.73,0,5.17,2.59,8.56,6.47,8.56"/><path d="M278.75,389.27h41.69c3.39,0,6.79-3.39,6.79-8.56,0-4.85-3.39-8.73-6.79-8.73H278.75c-3.88,0-6.47,3.88-6.47,8.73,0,5.17,2.59,8.56,6.47,8.56"/></g></g></g></svg>