<svg xmlns="http://www.w3.org/2000/svg" viewBox="0 0 223.4 56.69"><defs><style>.cls-1{fill:#c0536b;}.cls-1,.cls-10,.cls-11,.cls-2,.cls-3,.cls-4,.cls-5,.cls-6,.cls-7,.cls-8,.cls-9{fill-rule:evenodd;}.cls-2{fill:#8f5878;}.cls-3{fill:#7db5dd;}.cls-4{fill:#b8dde4;}.cls-5{fill:#4992bb;}.cls-6{fill:#b5d054;}.cls-7{fill:#74b65f;}.cls-8{fill:#ecb144;}.cls-9{fill:#e18c44;}.cls-10{fill:#dc7d43;}.cls-11{fill:#595651;}</style></defs><title>Ресурс 1</title><g id="Слой_2" data-name="Слой 2"><g id="Layer_1" data-name="Layer 1"><path class="cls-1" d="M198.92,30.74h-1.34V56.56h5a17.92,17.92,0,0,0-3.61-25.82Zm7.31,25.82H223.4V45.79a17.92,17.92,0,0,0-17.17,10.77Zm-2.09-25.82a17.92,17.92,0,0,0,19.27,11.5V30.74Z"/><path class="cls-2" d="M211,50.06a17.83,17.83,0,0,1,6.44,6.5h5.92V45.79A17.88,17.88,0,0,0,211,50.06Zm-13.47-5V56.56h5a17.93,17.93,0,0,0,3.6-14.66,17.83,17.83,0,0,1-8.55,3.17Zm19.33-14.33H204.14a17.91,17.91,0,0,0,10,10.34,17.93,17.93,0,0,1,2.77-10.34Z"/><path class="cls-3" d="M185.93,43.66a26.27,26.27,0,0,0,6.73-12.91H166.84V56.57h25.82a26.27,26.27,0,0,0-6.73-12.91Z"/><path class="cls-4" d="M185.31,30.74H166.84v4.71a26.23,26.23,0,0,1,12.62,3.22,31.72,31.72,0,0,0,5.85-7.93Zm-5.85,17.89a26.2,26.2,0,0,1-12.62,3.22v4.71h18.47a31.77,31.77,0,0,0-5.85-7.93Z"/><path class="cls-5" d="M166.84,35.45V41a31.57,31.57,0,0,1,6.09,2.69,31.77,31.77,0,0,0,6.54-5,26.23,26.23,0,0,0-12.62-3.22Zm0,10.89v5.51a26.2,26.2,0,0,0,12.62-3.22,31.86,31.86,0,0,0-6.54-5,31.54,31.54,0,0,1-6.09,2.69Z"/><path class="cls-6" d="M197.58,25.82H223.4V14.65H197.58V25.82Zm0-25.82V12.26H223.4V0Z"/><path class="cls-7" d="M197.58,22.29H223.4V17H197.58v5.26Zm0-22.29V9.15H223.4V0Z"/><path class="cls-8" d="M180.19,18A13.63,13.63,0,0,1,176,13.92a7.22,7.22,0,1,1,12,3.5,8.42,8.42,0,0,1-3.91,1.37,9.76,9.76,0,0,0,8.6-3.83V0H166.84V25.82h25.82V19h0a13.69,13.69,0,0,1-12.46-1Z"/><path class="cls-9" d="M174.81,11.77A12,12,0,0,1,178.12,0h-2.87a13.69,13.69,0,0,0-.44,11.77Zm14,14.05h3.85V23.22a16.76,16.76,0,0,1-3.85,2.61ZM168.37,0h-1.53V2.2l.21-.35A17.47,17.47,0,0,1,168.37,0Zm-1.53,19.2v6.62H174q-.73-.36-1.43-.79a16.79,16.79,0,0,1-5.69-5.83Z"/><path class="cls-10" d="M180.19,18a13.71,13.71,0,0,1-4.95-18H171.3l0,0a14.51,14.51,0,0,0,21.38,19,13.69,13.69,0,0,1-12.46-1ZM190,.78A9.75,9.75,0,0,0,188.44,0h-7.1a9.75,9.75,0,0,0-6.18,8.49,8.39,8.39,0,1,1,8.91,10.3,9.76,9.76,0,0,0,8.6-3.83V3.19A9.7,9.7,0,0,0,190,.78Z"/><polygon class="cls-11" points="58.3 49.17 58.3 49.97 55.33 49.97 55.33 56.56 54.38 56.56 54.38 49.17 58.3 49.17 58.3 49.17"/><path class="cls-11" d="M60.63,52.82a3.19,3.19,0,0,0,.79.08c1.15,0,1.85-.56,1.85-1.58s-.69-1.45-1.74-1.45a4,4,0,0,0-.9.08v2.87Zm-1-3.56a11.06,11.06,0,0,1,1.83-.14,3,3,0,0,1,2.07.61,2,2,0,0,1,.65,1.55,2.17,2.17,0,0,1-.57,1.58,3.06,3.06,0,0,1-2.26.81,3.35,3.35,0,0,1-.77-.07v3h-1v-7.3Z"/><path class="cls-11" d="M66.2,49.17l1.47,3.16c.19.44.36.88.54,1.31h0c.13-.37.27-.81.46-1.33l1.15-3.14h1L69.3,53a13.66,13.66,0,0,1-1.38,2.81,2.09,2.09,0,0,1-1.68.91,1.66,1.66,0,0,1-.54-.07l.1-.78a1.42,1.42,0,0,0,.35,0c.77,0,1.22-.73,1.45-1.27a.42.42,0,0,0,0-.44l-2.46-5Z"/><polygon class="cls-11" points="77.53 49.17 77.53 56.56 76.57 56.56 76.57 49.97 73.14 49.97 73.14 56.56 72.19 56.56 72.19 49.17 77.53 49.17 77.53 49.17"/><polygon class="cls-11" points="85.08 49.17 85.08 56.56 84.13 56.56 84.13 49.97 80.7 49.97 80.7 56.56 79.74 56.56 79.74 49.17 85.08 49.17 85.08 49.17"/><path class="cls-11" d="M90.92,53.49l-.72-2.13c-.16-.48-.27-.92-.38-1.35h0c-.11.44-.23.89-.37,1.34l-.72,2.14Zm-2.42.75-.77,2.33h-1l2.51-7.39H90.4l2.52,7.39h-1l-.79-2.33Z"/><path class="cls-11" d="M98.37,49.17v3.28h.3l2.53-3.28h1.15l-2.8,3.39a2.47,2.47,0,0,1,2.07,1.91,19.44,19.44,0,0,0,.81,2.1h-1a13.09,13.09,0,0,1-.67-1.74,2,2,0,0,0-2.06-1.64h-.31v3.39h-.94V49.17Z"/><path class="cls-11" d="M104.3,52.91c0,1.58.86,3,2.36,3S109,54.51,109,52.83c0-1.47-.77-3-2.36-3s-2.37,1.46-2.37,3.08Zm5.74-.12c0,2.54-1.55,3.89-3.43,3.89s-3.32-1.51-3.32-3.75S104.74,49,106.71,49,110,50.6,110,52.79Z"/><path class="cls-11" d="M118,53.32c-.05-1-.12-2.27-.11-3.19h0c-.25.87-.56,1.8-.93,2.81l-1.31,3.59h-.72L113.72,53c-.35-1-.65-2-.86-2.87h0c0,.92-.08,2.16-.14,3.27l-.2,3.17h-.91l.52-7.39h1.22l1.26,3.58c.3.91.56,1.72.74,2.49h0c.19-.75.45-1.56.78-2.49l1.32-3.58h1.22l.46,7.39h-.93L118,53.32Z"/><polygon class="cls-11" points="126.5 49.17 126.5 56.56 125.54 56.56 125.54 49.97 122.11 49.97 122.11 56.56 121.15 56.56 121.15 49.17 126.5 49.17 126.5 49.17"/><path class="cls-11" d="M132.33,53.49l-.72-2.13c-.16-.48-.27-.92-.38-1.35h0c-.11.44-.23.89-.37,1.34l-.72,2.14Zm-2.42.75-.77,2.33h-1l2.51-7.39h1.15l2.52,7.39h-1l-.79-2.33Z"/><polygon class="cls-11" points="136.92 49.17 136.92 52.26 140.5 52.26 140.5 49.17 141.46 49.17 141.46 56.56 140.5 56.56 140.5 53.09 136.92 53.09 136.92 56.56 135.97 56.56 135.97 49.17 136.92 49.17 136.92 49.17"/><path class="cls-11" d="M144.57,49.17v3.11c0,1.16,0,2.14-.09,3.13h0c.37-.77.83-1.57,1.37-2.45l2.39-3.8h1v7.39h-.9V53.41c0-1.2,0-2.07.09-3h0A22.25,22.25,0,0,1,147,52.89l-2.31,3.67h-1V49.17Z"/><path class="cls-11" d="M153.54,47.61c0,.35.16.69.67.69s.63-.33.67-.69h.73c-.05.73-.49,1.18-1.42,1.18a1.21,1.21,0,0,1-1.38-1.18Zm-1.21,1.56v3.11c0,1.16,0,2.14-.09,3.13h0c.37-.77.83-1.57,1.37-2.45l2.39-3.8h1v7.39h-.9V53.41c0-1.2,0-2.07.09-3h0a21.92,21.92,0,0,1-1.37,2.49l-2.31,3.67h-1V49.17Z"/><path class="cls-11" d="M149.9,27.93l8.22-13.78h-6.23l-5,9.14L142,14.14h-6.28l8.22,13.78-8.78,14.5h6.31l5.44-9.85,5.48,9.85h6.31l-8.81-14.5Zm-36.37,14.5h18.63V37.5H119V30.74H130.2V25.82H119V19.07h13.1V14.14H113.52V42.42ZM89.35,19.07h7.39V42.42h5.52V19.07h7.39V14.14H89.35v4.93Zm-7.91,10.3c0,3.93-.16,6-1.35,7.27a4.74,4.74,0,0,1-3.57,1.55A4.65,4.65,0,0,1,73,36.64c-1.07-1.19-1.39-2.86-1.39-7V27c0-3.58.28-5.84,1.39-7.11a4.51,4.51,0,0,1,3.54-1.51,4.65,4.65,0,0,1,3.57,1.51c1.07,1.23,1.35,3.26,1.35,6.91v2.57ZM76.52,13.45a10.13,10.13,0,0,0-7.63,3.1c-2.1,2.19-2.62,5.14-2.78,9.27H61.82V14.14H56.31V42.42h5.52V30.74h4.25c.08,3.73.48,6.89,2.82,9.27a11,11,0,0,0,15.29,0C86.93,37.16,87,33.86,87,29.13v-3.8c0-3.89-.68-6.63-2.78-8.78a10.32,10.32,0,0,0-7.66-3.1ZM32.15,27c0,8.86-2,10.52-4.85,10.52h-.79v4.93h2.18c5.88,0,8.78-3.26,8.78-15.13V19.07h6.75V42.42h5.52V14.14H32.15V27ZM9,32.77l3.58-10.29L16,32.77Zm1.27-18.63L0,42.42H5.76l1.71-5h10l1.67,5h5.76L14.62,14.14Z"/></g></g></svg>